<svg width="16" height="16" viewBox="0 0 16 16" fill="none" xmlns="http://www.w3.org/2000/svg">
<path d="M8 8C6.28571 8 5 6.60714 5 5C5 3.39286 6.28571 2 8 2C9.71429 2 11 3.39286 11 5C11 6.60714 9.71429 8 8 8Z" fill="#20D9D3"/>
<path d="M8 16C10.1607 16 12.0268 15.125 13.5 13.7639C13.1071 11.1389 10.8482 9 8 9C5.15179 9 2.89286 11.1389 2.5 13.7639C3.97321 15.125 5.83929 16 8 16Z" fill="#20D9D3"/>
<path d="M8 0C3.6 0 0 3.6 0 8C0 12.4 3.6 16 8 16C12.4 16 16 12.4 16 8C16 3.6 12.4 0 8 0ZM8 15C4.1 15 1 11.9 1 8C1 4.1 4.1 1 8 1C11.9 1 15 4.1 15 8C15 11.9 11.9 15 8 15Z" fill="#20D9D3"/>
</svg>
